<svg width="9" height="9" viewBox="0 0 9 9" fill="none" xmlns="http://www.w3.org/2000/svg">
<mask id="path-1-inside-1_85_119" fill="white">
<path d="M8.36667 4.61164L4.47722 0.129215C4.44206 0.0886546 4.39859 0.0561256 4.34977 0.0338318C4.30094 0.0115379 4.24789 0 4.19421 0C4.14053 0 4.08748 0.0115379 4.03866 0.0338318C3.98983 0.0561256 3.94636 0.0886546 3.9112 0.129215L0.0229223 4.61164C0.0111727 4.62515 0.00355426 4.64175 0.000974529 4.65947C-0.0016052 4.67719 0.000962486 4.69527 0.0083717 4.71157C0.0157809 4.72787 0.0277194 4.7417 0.0427651 4.75141C0.0578108 4.76111 0.0753297 4.76629 0.0932348 4.76632H1.04245C1.09636 4.76632 1.14792 4.74289 1.18425 4.70187L3.74948 1.74523V8.34406C3.74948 8.39562 3.79167 8.43781 3.84323 8.43781H4.54636C4.59792 8.43781 4.64011 8.39562 4.64011 8.34406V1.74523L7.20534 4.70187C7.2405 4.74289 7.29206 4.76632 7.34714 4.76632H8.29636C8.37605 4.76632 8.41941 4.67257 8.36667 4.61164Z"/>
</mask>
<path d="M8.36667 4.61164L9.12284 3.95726L9.12197 3.95625L8.36667 4.61164ZM4.47722 0.129215L3.72159 0.784211L3.72192 0.784596L4.47722 0.129215ZM3.9112 0.129215L4.6666 0.784484L4.66684 0.784211L3.9112 0.129215ZM0.0229223 4.61164L0.777499 5.26785L0.778318 5.26691L0.0229223 4.61164ZM0.0932348 4.76632L0.0914816 5.76632H0.0932348V4.76632ZM1.18425 4.70187L1.93288 5.36494L1.93958 5.35721L1.18425 4.70187ZM3.74948 1.74523H4.74948V-0.933275L2.99415 1.08989L3.74948 1.74523ZM4.64011 1.74523L5.39544 1.08989L3.64011 -0.933274V1.74523H4.64011ZM7.20534 4.70187L7.96461 4.05107L7.96068 4.04653L7.20534 4.70187ZM8.36667 4.61164L9.12197 3.95625L5.23252 -0.526167L4.47722 0.129215L3.72192 0.784596L7.61137 5.26702L8.36667 4.61164ZM4.47722 0.129215L5.23285 -0.525782C5.10382 -0.674636 4.9443 -0.794018 4.7651 -0.875837L4.34977 0.0338318L3.93443 0.943501C3.85289 0.906269 3.7803 0.851945 3.72159 0.784211L4.47722 0.129215ZM4.34977 0.0338318L4.7651 -0.875837C4.5859 -0.957655 4.39121 -1 4.19421 -1V0V1C4.10457 1 4.01598 0.980731 3.93443 0.943501L4.34977 0.0338318ZM4.19421 0V-1C3.99722 -1 3.80252 -0.957656 3.62332 -0.875837L4.03866 0.0338318L4.45399 0.943501C4.37245 0.980732 4.28385 1 4.19421 1V0ZM4.03866 0.0338318L3.62332 -0.875837C3.44412 -0.794019 3.2846 -0.674638 3.15557 -0.525782L3.9112 0.129215L4.66684 0.784211C4.60812 0.851947 4.53553 0.90627 4.45399 0.943501L4.03866 0.0338318ZM3.9112 0.129215L3.15581 -0.526054L-0.732473 3.95637L0.0229223 4.61164L0.778318 5.26691L4.6666 0.784483L3.9112 0.129215ZM0.0229223 4.61164L-0.731654 3.95542C-0.869203 4.11359 -0.958391 4.30796 -0.988592 4.51539L0.000974529 4.65947L0.990541 4.80355C0.9655 4.97554 0.891549 5.1367 0.777499 5.26785L0.0229223 4.61164ZM0.000974529 4.65947L-0.988592 4.51539C-1.01879 4.72282 -0.988732 4.93455 -0.901995 5.12538L0.0083717 4.71157L0.918738 4.29777C0.990657 4.45599 1.01558 4.63156 0.990541 4.80355L0.000974529 4.65947ZM0.0083717 4.71157L-0.901995 5.12538C-0.815255 5.3162 -0.675492 5.47807 -0.499357 5.59171L0.0427651 4.75141L0.584888 3.91111C0.730931 4.00533 0.846817 4.13954 0.918738 4.29777L0.0083717 4.71157ZM0.0427651 4.75141L-0.499357 5.59171C-0.323229 5.70534 -0.118142 5.76595 0.0914816 5.76632L0.0932348 4.76632L0.094988 3.76633C0.268801 3.76663 0.438851 3.81689 0.584888 3.91111L0.0427651 4.75141ZM0.0932348 4.76632V5.76632H1.04245V4.76632V3.76632H0.0932348V4.76632ZM1.04245 4.76632V5.76632C1.38795 5.76632 1.71028 5.61619 1.93284 5.36491L1.18425 4.70187L0.435662 4.03884C0.585568 3.86959 0.80477 3.76632 1.04245 3.76632V4.76632ZM1.18425 4.70187L1.93958 5.35721L4.50482 2.40057L3.74948 1.74523L2.99415 1.08989L0.428917 4.04653L1.18425 4.70187ZM3.74948 1.74523H2.74948V8.34406H3.74948H4.74948V1.74523H3.74948ZM3.74948 8.34406H2.74948C2.74948 8.94791 3.23939 9.43781 3.84323 9.43781V8.43781V7.43781C4.34396 7.43781 4.74948 7.84334 4.74948 8.34406H3.74948ZM3.84323 8.43781V9.43781H4.54636V8.43781V7.43781H3.84323V8.43781ZM4.54636 8.43781V9.43781C5.15021 9.43781 5.64011 8.94791 5.64011 8.34406H4.64011H3.64011C3.64011 7.84334 4.04564 7.43781 4.54636 7.43781V8.43781ZM4.64011 8.34406H5.64011V1.74523H4.64011H3.64011V8.34406H4.64011ZM4.64011 1.74523L3.88478 2.40057L6.45001 5.35721L7.20534 4.70187L7.96068 4.04653L5.39544 1.08989L4.64011 1.74523ZM7.20534 4.70187L6.44609 5.35266C6.67546 5.62027 7.00671 5.76632 7.34714 5.76632V4.76632V3.76632C7.57742 3.76632 7.80554 3.86551 7.9646 4.05108L7.20534 4.70187ZM7.34714 4.76632V5.76632H8.29636V4.76632V3.76632H7.34714V4.76632ZM8.29636 4.76632V5.76632C9.23137 5.76632 9.73693 4.66687 9.12284 3.95726L8.36667 4.61164L7.6105 5.26601C7.10189 4.67828 7.52073 3.76632 8.29636 3.76632V4.76632Z" fill="white" mask="url(#path-1-inside-1_85_119)"/>
</svg>
