<svg width="11" height="12" viewBox="0 0 11 12" fill="none" xmlns="http://www.w3.org/2000/svg">
<path d="M5.75049 0.75C2.85127 0.75 0.500488 3.10078 0.500488 6C0.500488 8.89922 2.85127 11.25 5.75049 11.25C8.64971 11.25 11.0005 8.89922 11.0005 6C11.0005 3.10078 8.64971 0.75 5.75049 0.75ZM5.75049 10.3594C3.34346 10.3594 1.39111 8.40703 1.39111 6C1.39111 3.59297 3.34346 1.64062 5.75049 1.64062C8.15752 1.64062 10.1099 3.59297 10.1099 6C10.1099 8.40703 8.15752 10.3594 5.75049 10.3594Z" fill="#07E1F2"/>
<path d="M7.79775 7.48359L6.12666 6.27539V3.375C6.12666 3.32344 6.08447 3.28125 6.03291 3.28125H5.46924C5.41768 3.28125 5.37549 3.32344 5.37549 3.375V6.60234C5.37549 6.63281 5.38955 6.66094 5.41416 6.67852L7.35244 8.0918C7.39463 8.12227 7.45322 8.11289 7.48369 8.07187L7.81885 7.61484C7.84932 7.57148 7.83994 7.51289 7.79775 7.48359Z" fill="#07E1F2"/>
</svg>
