<svg width="9" height="9" viewBox="0 0 9 9" fill="none" xmlns="http://www.w3.org/2000/svg">
<path fill-rule="evenodd" clip-rule="evenodd" d="M7.42439 6.22284e-05C7.42466 0.00014426 7.4249 0.000273233 7.42538 0.000753702L8.10143 0.676808C8.10191 0.677289 8.10204 0.677511 8.10212 0.677793C8.1022 0.678056 8.1022 0.678338 8.10212 0.678601C8.10204 0.678871 8.10191 0.679093 8.10143 0.679574L4.72991 4.05109L8.10143 7.42261C8.10191 7.42308 8.10204 7.42332 8.10212 7.42359C8.10221 7.42385 8.10221 7.42414 8.10212 7.42441C8.10204 7.42466 8.10191 7.4249 8.10143 7.42538L7.42538 8.10143C7.4249 8.10191 7.42467 8.10204 7.42439 8.10212C7.42413 8.1022 7.42385 8.1022 7.42359 8.10212C7.42332 8.10204 7.42309 8.10191 7.42261 8.10143L4.05109 4.72991L0.679574 8.10143C0.679105 8.10191 0.678871 8.10204 0.678601 8.10212C0.678334 8.10221 0.678048 8.10221 0.677781 8.10212C0.677523 8.10204 0.677289 8.10191 0.676808 8.10143L0.000753702 7.42538C0.000273233 7.4249 0.00014426 7.42467 6.22284e-05 7.42439C-1.83353e-05 7.42413 -1.83353e-05 7.42385 6.22284e-05 7.42359C0.00014426 7.42332 0.000273233 7.42309 0.000753702 7.42261L3.37226 4.05109L0.000753702 0.679574C0.000273233 0.679105 0.00014426 0.678871 6.22284e-05 0.678601C-2.07428e-05 0.678334 -2.07428e-05 0.678048 6.22284e-05 0.677781C0.00014426 0.677523 0.000273233 0.677289 0.000753702 0.676808L0.676808 0.000753702C0.677289 0.000273233 0.677511 0.00014426 0.677793 6.22284e-05C0.678056 -1.83353e-05 0.678338 -1.83353e-05 0.678601 6.22284e-05C0.678871 0.00014426 0.679093 0.000273233 0.679574 0.000753702L4.05109 3.37226L7.42261 0.000753702C7.42308 0.000273233 7.42332 0.00014426 7.42359 6.22284e-05C7.42385 -2.07428e-05 7.42414 -2.07428e-05 7.42441 6.22284e-05H7.42439Z" fill="black"/>
</svg>
