<svg width="17" height="16" viewBox="0 0 17 16" fill="none" xmlns="http://www.w3.org/2000/svg">
<path d="M16.3539 12.854L11.5 8L16.3539 3.14604C16.4059 3.09404 16.4439 3.03304 16.4679 2.96804C16.5339 2.79004 16.4959 2.58204 16.3539 2.43904L14.061 0.146063C13.918 0.00306425 13.71 -0.0349354 13.532 0.032064C13.467 0.0560638 13.406 0.0940635 13.354 0.146063L8.5 5.00002L3.64604 0.146063C3.59404 0.0940635 3.53304 0.0560638 3.46804 0.032064C3.29004 -0.0339354 3.08204 0.00306425 2.93904 0.146063L0.646063 2.43904C0.503064 2.58204 0.465065 2.79004 0.532064 2.96804C0.556064 3.03304 0.594064 3.09404 0.646063 3.14604L5.50002 8L0.646063 12.854C0.594064 12.906 0.556064 12.967 0.532064 13.032C0.466065 13.21 0.503064 13.418 0.646063 13.561L2.93904 15.8539C3.08204 15.9969 3.29004 16.0349 3.46804 15.9679C3.53304 15.9439 3.59404 15.9059 3.64604 15.8539L8.5 11L13.354 15.8539C13.406 15.9059 13.467 15.9439 13.532 15.9679C13.71 16.0339 13.918 15.9969 14.061 15.8539L16.3539 13.561C16.4969 13.418 16.5349 13.21 16.4679 13.032C16.4439 12.967 16.4059 12.906 16.3539 12.854Z" fill="#F67878"/>
</svg>
