<svg width="11" height="10" viewBox="0 0 11 10" fill="none" xmlns="http://www.w3.org/2000/svg">
<path d="M10.1255 0.875H0.375488C0.168066 0.875 0.000488281 1.04258 0.000488281 1.25V8.75C0.000488281 8.95742 0.168066 9.125 0.375488 9.125H10.1255C10.3329 9.125 10.5005 8.95742 10.5005 8.75V1.25C10.5005 1.04258 10.3329 0.875 10.1255 0.875ZM9.65674 2.17344V8.28125H0.844238V2.17344L0.520801 1.92148L0.981348 1.32969L1.48291 1.71992H9.01924L9.5208 1.32969L9.98135 1.92148L9.65674 2.17344ZM9.01924 1.71875L5.25049 4.64844L1.48174 1.71875L0.980176 1.32852L0.519629 1.92031L0.843066 2.17227L4.84619 5.28477C4.96132 5.3742 5.10295 5.42275 5.24873 5.42275C5.39451 5.42275 5.53615 5.3742 5.65127 5.28477L9.65674 2.17344L9.98018 1.92148L9.51963 1.32969L9.01924 1.71875Z" fill="#07E1F2"/>
</svg>
