<svg width="40" height="40" viewBox="0 0 40 40" fill="none" xmlns="http://www.w3.org/2000/svg">
<circle cx="20" cy="20" r="20" fill="#6284B4"/>
<mask id="path-2-inside-1_82_136" fill="white">
<path d="M28.3571 13H11.6429C11.2873 13 11 13.2844 11 13.6364V26.3636C11 26.7156 11.2873 27 11.6429 27H28.3571C28.7127 27 29 26.7156 29 26.3636V13.6364C29 13.2844 28.7127 13 28.3571 13ZM27.5536 15.2034V25.5682H12.4464V15.2034L11.892 14.7759L12.6815 13.7716L13.5413 14.4338H26.4607L27.3205 13.7716L28.11 14.7759L27.5536 15.2034ZM26.4607 14.4318L20 19.4034L13.5393 14.4318L12.6795 13.7696L11.89 14.7739L12.4444 15.2014L19.3069 20.4832C19.5043 20.635 19.7471 20.7174 19.997 20.7174C20.2469 20.7174 20.4897 20.635 20.6871 20.4832L27.5536 15.2034L28.108 14.7759L27.3185 13.7716L26.4607 14.4318Z"/>
</mask>
<path d="M27.5536 25.5682V27.5682H29.5536V25.5682H27.5536ZM12.4464 25.5682H10.4464V27.5682H12.4464V25.5682ZM12.4464 15.2034H14.4464V14.2201L13.6677 13.6196L12.4464 15.2034ZM11.892 14.7759L10.3197 13.5398L9.07196 15.1269L10.6707 16.3597L11.892 14.7759ZM12.6815 13.7716L13.9018 12.1871L12.333 10.9788L11.1092 12.5355L12.6815 13.7716ZM13.5413 14.4338L12.3209 16.0183L12.8604 16.4338H13.5413V14.4338ZM26.4607 14.4338V16.4338H27.1416L27.6811 16.0183L26.4607 14.4338ZM27.3205 13.7716L28.8928 12.5355L27.669 10.9788L26.1002 12.1871L27.3205 13.7716ZM28.11 14.7759L29.3286 16.3618L30.9322 15.1296L29.6823 13.5398L28.11 14.7759ZM26.4607 14.4318L27.6804 16.0169L27.6806 16.0167L26.4607 14.4318ZM20 19.4034L18.7803 20.9884L20 21.927L21.2197 20.9884L20 19.4034ZM13.5393 14.4318L12.3189 16.0163L12.3196 16.0169L13.5393 14.4318ZM12.6795 13.7696L13.8998 12.1851L12.331 10.9768L11.1072 12.5335L12.6795 13.7696ZM11.89 14.7739L10.3177 13.5378L9.06995 15.1249L10.6687 16.3577L11.89 14.7739ZM12.4444 15.2014L11.2231 16.7852L11.2246 16.7863L12.4444 15.2014ZM19.3069 20.4832L18.0871 22.0682L18.0877 22.0686L19.3069 20.4832ZM19.997 20.7174V18.7174V20.7174ZM20.6871 20.4832L19.4679 18.8978L19.4678 18.8978L20.6871 20.4832ZM28.108 14.7759L29.3293 16.3597L30.928 15.1269L29.6803 13.5398L28.108 14.7759ZM27.3185 13.7716L28.8908 12.5355L27.6674 10.9793L26.0987 12.1867L27.3185 13.7716ZM28.3571 13V11H11.6429V13V15H28.3571V13ZM11.6429 13V11C10.2019 11 9 12.1607 9 13.6364H11H13C13 14.408 12.3727 15 11.6429 15V13ZM11 13.6364H9V26.3636H11H13V13.6364H11ZM11 26.3636H9C9 27.8393 10.2019 29 11.6429 29V27V25C12.3727 25 13 25.592 13 26.3636H11ZM11.6429 27V29H28.3571V27V25H11.6429V27ZM28.3571 27V29C29.7981 29 31 27.8393 31 26.3636H29H27C27 25.592 27.6273 25 28.3571 25V27ZM29 26.3636H31V13.6364H29H27V26.3636H29ZM29 13.6364H31C31 12.1607 29.7981 11 28.3571 11V13V15C27.6273 15 27 14.408 27 13.6364H29ZM27.5536 15.2034H25.5536V25.5682H27.5536H29.5536V15.2034H27.5536ZM27.5536 25.5682V23.5682H12.4464V25.5682V27.5682H27.5536V25.5682ZM12.4464 25.5682H14.4464V15.2034H12.4464H10.4464V25.5682H12.4464ZM12.4464 15.2034L13.6677 13.6196L13.1133 13.192L11.892 14.7759L10.6707 16.3597L11.2251 16.7872L12.4464 15.2034ZM11.892 14.7759L13.4643 16.0119L14.2538 15.0077L12.6815 13.7716L11.1092 12.5355L10.3197 13.5398L11.892 14.7759ZM12.6815 13.7716L11.4611 15.3561L12.3209 16.0183L13.5413 14.4338L14.7617 12.8493L13.9018 12.1871L12.6815 13.7716ZM13.5413 14.4338V16.4338H26.4607V14.4338V12.4338H13.5413V14.4338ZM26.4607 14.4338L27.6811 16.0183L28.5409 15.3561L27.3205 13.7716L26.1002 12.1871L25.2403 12.8493L26.4607 14.4338ZM27.3205 13.7716L25.7482 15.0077L26.5377 16.0119L28.11 14.7759L29.6823 13.5398L28.8928 12.5355L27.3205 13.7716ZM28.11 14.7759L26.8915 13.1899L26.335 13.6175L27.5536 15.2034L28.7721 16.7893L29.3286 16.3618L28.11 14.7759ZM26.4607 14.4318L25.241 12.8468L18.7803 17.8184L20 19.4034L21.2197 20.9884L27.6804 16.0169L26.4607 14.4318ZM20 19.4034L21.2197 17.8184L14.759 12.8468L13.5393 14.4318L12.3196 16.0169L18.7803 20.9884L20 19.4034ZM13.5393 14.4318L14.7597 12.8473L13.8998 12.1851L12.6795 13.7696L11.4591 15.3541L12.3189 16.0163L13.5393 14.4318ZM12.6795 13.7696L11.1072 12.5335L10.3177 13.5378L11.89 14.7739L13.4623 16.0099L14.2518 15.0057L12.6795 13.7696ZM11.89 14.7739L10.6687 16.3577L11.2231 16.7852L12.4444 15.2014L13.6657 13.6176L13.1113 13.1901L11.89 14.7739ZM12.4444 15.2014L11.2246 16.7863L18.0871 22.0682L19.3069 20.4832L20.5268 18.8983L13.6643 13.6165L12.4444 15.2014ZM19.3069 20.4832L18.0877 22.0686C18.6361 22.4904 19.3079 22.7174 19.997 22.7174V20.7174V18.7174C20.1863 18.7174 20.3725 18.7797 20.5262 18.8978L19.3069 20.4832ZM19.997 20.7174L19.997 22.7174C20.6861 22.7174 21.3579 22.4904 21.9063 22.0686L20.6871 20.4832L19.4678 18.8978C19.6215 18.7797 19.8077 18.7174 19.997 18.7174L19.997 20.7174ZM20.6871 20.4832L21.9062 22.0687L28.7727 16.7889L27.5536 15.2034L26.3345 13.6179L19.4679 18.8978L20.6871 20.4832ZM27.5536 15.2034L28.7749 16.7872L29.3293 16.3597L28.108 14.7759L26.8867 13.192L26.3323 13.6196L27.5536 15.2034ZM28.108 14.7759L29.6803 13.5398L28.8908 12.5355L27.3185 13.7716L25.7462 15.0077L26.5357 16.0119L28.108 14.7759ZM27.3185 13.7716L26.0987 12.1867L25.2409 12.8469L26.4607 14.4318L27.6806 16.0167L28.5384 15.3565L27.3185 13.7716Z" fill="white" mask="url(#path-2-inside-1_82_136)"/>
</svg>
