<svg width="12" height="12" viewBox="0 0 12 12" fill="none" xmlns="http://www.w3.org/2000/svg">
<path fill-rule="evenodd" clip-rule="evenodd" d="M1.4141 0.382872C1.54533 0.251838 1.70291 0.150191 1.8764 0.0846643C2.04989 0.0191381 2.23532 -0.00877011 2.42041 0.00278905C2.6055 0.0143482 2.78601 0.0651108 2.95 0.151713C3.11399 0.238315 3.2577 0.358779 3.3716 0.505122L4.71785 2.23462C4.9646 2.55187 5.0516 2.96512 4.9541 3.35512L4.54385 4.99762C4.52279 5.0827 4.52401 5.17177 4.54739 5.25625C4.57078 5.34072 4.61554 5.41774 4.67735 5.47987L6.5201 7.32262C6.58231 7.38456 6.65946 7.4294 6.74408 7.45278C6.82869 7.47617 6.91791 7.47732 7.0031 7.45612L8.64485 7.04587C8.83733 6.99803 9.03816 6.99443 9.23223 7.03535C9.4263 7.07627 9.60857 7.16064 9.76535 7.28212L11.4949 8.62762C12.1166 9.11137 12.1736 10.0301 11.6171 10.5859L10.8416 11.3614C10.2866 11.9164 9.4571 12.1601 8.68385 11.8879C6.70436 11.1923 4.90726 10.0592 3.42635 8.57287C1.94013 7.09218 0.807017 5.29535 0.111353 3.31612C-0.160147 2.54362 0.0836032 1.71337 0.638603 1.15837L1.4141 0.382872Z" fill="#07E1F2"/>
</svg>
