<svg width="40" height="40" viewBox="0 0 40 40" fill="none" xmlns="http://www.w3.org/2000/svg">
<circle cx="20" cy="20" r="20" fill="#6284B4"/>
<path fill-rule="evenodd" clip-rule="evenodd" d="M13.1211 11.574C13.3179 11.3774 13.5543 11.2249 13.8145 11.1266C14.0747 11.0283 14.3529 10.9865 14.6305 11.0038C14.9081 11.0212 15.1789 11.0973 15.4249 11.2272C15.6708 11.3571 15.8864 11.5378 16.0572 11.7574L18.0766 14.3517C18.4467 14.8276 18.5772 15.4475 18.4309 16.0325L17.8156 18.4964C17.784 18.624 17.7858 18.7577 17.8209 18.8844C17.856 19.0111 17.9231 19.1266 18.0158 19.2198L20.7798 21.9841C20.8732 22.077 20.9889 22.1442 21.1158 22.1793C21.2427 22.2144 21.3765 22.2161 21.5043 22.1843L23.9669 21.5689C24.2556 21.4972 24.5568 21.4918 24.8479 21.5531C25.139 21.6145 25.4124 21.7411 25.6476 21.9233L28.2417 23.9417C29.1743 24.6673 29.2598 26.0455 28.4251 26.8792L27.2619 28.0425C26.4294 28.875 25.1852 29.2407 24.0254 28.8323C21.0562 27.7889 18.3607 26.0891 16.1394 23.8595C13.9101 21.6384 12.2105 18.943 11.167 15.974C10.7598 14.8152 11.1254 13.5698 11.9579 12.7373L13.1211 11.574Z" fill="white"/>
</svg>
