<svg width="100" height="51" viewBox="0 0 100 51" fill="none" xmlns="http://www.w3.org/2000/svg">
<ellipse cx="50" cy="25.5" rx="50" ry="25.5" fill="#0C1444"/>
<path d="M34.401 45.9925C24.6829 45.7921 30.3518 36.8087 34.401 32.3421C32.0216 37.2262 30.1431 41.7346 38.9094 41.7346C46.2395 41.7346 59.4476 36.0156 65.2084 32.3421C70.4264 28.7103 80.6371 19.919 79.7354 13.8076C78.8337 7.6962 68.5062 9.42442 63.4551 11.0525C66.0433 9.5914 73.3235 6.54406 81.7391 6.04312C92.2587 5.41696 91.1316 11.7844 89.8793 13.8076C88.2513 16.4378 80.2555 28.6672 67.7322 36.4317C61.7064 40.1676 46.5486 46.243 34.401 45.9925Z" fill="#07E1F2"/>
<path d="M17.4176 25.2122C13.7107 21.2048 11.1142 24.7948 10.2793 27.0907C9.4027 26.2141 10.7803 23.5842 11.7821 22.4571C13.1237 20.9478 19.0457 18.4497 23.0531 19.3263C26.2591 20.0276 30.2332 19.6185 31.8194 19.3263C35.7434 18.1992 44.9188 16.0702 50.2287 16.5712C55.5386 17.0721 58.6193 20.7038 59.496 22.4571C59.8717 23.5842 59.929 24.0173 58.3689 22.4571C53.8605 17.9487 45.9611 18.4865 49.2268 19.3263C53.61 20.4534 55.405 24.5026 55.238 26.3393C54.6119 25.5044 52.7334 23.3588 50.2287 21.4552C47.7241 19.5517 44.1758 19.9942 42.7147 20.4534C40.4188 20.9961 35.1506 22.1565 32.4456 22.4571C29.7406 22.7577 21.8008 21.4552 17.4176 21.4552C18.2943 23.0833 17.9968 25.8384 17.4176 25.2122Z" fill="url(#paint0_linear_65_160)"/>
<path d="M33.0433 17.8736C33.2437 16.1704 35.548 14.2418 36.6751 13.4904C39.28 13.0897 49.7828 15.3272 54.7087 16.496H57.0881C55.4851 16.496 48.5305 13.407 45.1909 11.7372L49.1984 11.7372C51.6613 12.7808 57.0129 15.0934 58.7161 15.9951C60.4193 16.8968 63.9342 16.7048 65.4787 16.496L63.2245 14.868C65.9796 15.4107 70.989 16.496 68.9852 16.496C66.9815 16.496 62.3896 18.3328 60.3442 19.2512L55.8358 17.8736L60.9703 20.8792C67.3823 17.2725 77.0836 18.291 81.1329 19.2512C78.9288 16.8467 73.7858 16.4125 71.4899 16.496C58.9666 11.4867 57.4638 12.3633 52.5797 11.3615C48.6724 10.56 42.0184 11.3197 39.1797 11.7372C34.7966 12.2381 28.6184 15.0767 26.2807 17.1222C25.4041 14.9932 23.6508 15.8386 22.7742 16.496C22.2733 16.8717 22.7742 17.8736 23.6508 18.7502C23.4004 18.458 23.1749 17.7233 24.277 17.1222C25.379 16.5211 26.072 17.7066 26.2807 18.3745C31.791 13.4904 34.1704 13.9914 34.1704 13.9914C33.0433 14.868 32.7929 20.0026 33.0433 17.8736Z" fill="url(#paint1_linear_65_160)"/>
<path d="M71.3641 22.6325L69.3604 19.7522C72.2658 18.7503 76.3317 19.3347 78.0014 19.7522C74.4949 19.151 72.1155 21.4219 71.3641 22.6325Z" fill="url(#paint2_linear_65_160)"/>
<path d="M63.9756 24.7614C68.5257 25.1371 78.5778 25.5128 82.3849 24.01C79.7132 25.3041 72.2911 27.2661 63.9756 24.7614Z" fill="url(#paint3_linear_65_160)"/>
<path d="M66.0333 20.629C64.3145 19.379 62.9024 20.3368 62.2763 21.1299C61.3996 21.8813 61.9507 24.1606 63.1529 23.2589C65.1566 21.7561 66.2837 22.1318 69.0389 23.2589C68.6632 22.9249 67.4108 21.6309 66.0333 20.629Z" fill="#92CF79"/>
<path d="M80.5603 20.8795C81.7291 20.7125 83.4801 21.4376 81.6874 22.6327C81.3117 22.8832 81.0612 22.1318 80.5603 21.6309C80.2411 21.6309 79.4698 22.5169 79.2451 23.0291C79.1942 23.2865 79.1827 23.4107 79.1827 23.2589C79.1827 23.1987 79.2054 23.1197 79.2451 23.0291C79.3622 22.4373 79.6875 21.1413 80.5603 20.8795Z" fill="#92CF79"/>
<path d="M18.9899 28.2003C17.1865 24.6938 13.7301 25.0695 12.2273 25.6956C11.4258 26.2967 11.8933 26.781 12.2273 26.948L15.4833 27.8246L15.9843 30.3292L13.8553 32.2077C13.3126 32.0825 11.9768 31.7068 10.975 31.2059C9.97309 30.7049 10.2236 31.9155 10.474 32.5834C13.68 36.09 17.1531 34.0445 18.4889 32.5834H57.3112C56.4095 30.6799 56.9355 28.8682 57.3112 28.2003H18.9899Z" fill="url(#paint4_linear_65_160)"/>
<path d="M16.3604 33.4601C18.1637 32.2579 17.7797 28.5343 17.3622 26.8228C17.763 26.8228 18.6145 27.8246 18.9902 28.3256H21.1192C19.3159 30.1289 20.3678 31.9156 21.1192 32.5835H18.4893L16.3604 33.4601Z" fill="#96D57B"/>
<path d="M55.9336 28.2002H57.5616V32.4581H55.9336C56.6349 31.4563 56.2258 29.2021 55.9336 28.2002Z" fill="#7AC55B"/>
<path d="M64.6995 30.3292C64.6995 32.5425 62.9053 34.3367 60.692 34.3367C58.4788 34.3367 56.6846 32.5425 56.6846 30.3292C56.6846 28.116 58.4788 26.3218 60.692 26.3218C62.9053 26.3218 64.6995 28.116 64.6995 30.3292ZM57.994 30.3292C57.994 31.8193 59.2019 33.0273 60.692 33.0273C62.1821 33.0273 63.3901 31.8193 63.3901 30.3292C63.3901 28.8391 62.1821 27.6312 60.692 27.6312C59.2019 27.6312 57.994 28.8391 57.994 30.3292Z" fill="#7DC45F"/>
<rect x="21.8711" y="28.8274" width="29.5532" height="3.2542" rx="1.6271" stroke="url(#paint5_linear_65_160)"/>
<defs>
<linearGradient id="paint0_linear_65_160" x1="10" y1="21.7934" x2="59.7178" y2="21.7934" gradientUnits="userSpaceOnUse">
<stop stop-color="#E9FFE9"/>
<stop offset="1" stop-color="#85C869"/>
</linearGradient>
<linearGradient id="paint1_linear_65_160" x1="22.5752" y1="15.9442" x2="81.1329" y2="15.9442" gradientUnits="userSpaceOnUse">
<stop stop-color="#E9FFE9"/>
<stop offset="1" stop-color="#85C869"/>
</linearGradient>
<linearGradient id="paint2_linear_65_160" x1="69.3604" y1="20.9157" x2="78.0014" y2="20.9157" gradientUnits="userSpaceOnUse">
<stop stop-color="#E9FFE9"/>
<stop offset="1" stop-color="#85C869"/>
</linearGradient>
<linearGradient id="paint3_linear_65_160" x1="63.9756" y1="24.99" x2="82.3849" y2="24.99" gradientUnits="userSpaceOnUse">
<stop stop-color="#E9FFE9"/>
<stop offset="1" stop-color="#85C869"/>
</linearGradient>
<linearGradient id="paint4_linear_65_160" x1="10.25" y1="29.9027" x2="57.3112" y2="29.9027" gradientUnits="userSpaceOnUse">
<stop stop-color="#E9FFE9"/>
<stop offset="1" stop-color="#8FCD76"/>
</linearGradient>
<linearGradient id="paint5_linear_65_160" x1="22.3711" y1="30.4545" x2="50.9243" y2="30.4545" gradientUnits="userSpaceOnUse">
<stop stop-color="#88BF73"/>
<stop offset="1" stop-color="#BFE8B2"/>
</linearGradient>
</defs>
</svg>
