<svg width="1200" height="801" viewBox="0 0 1200 801" fill="none" xmlns="http://www.w3.org/2000/svg">
<rect width="1200" height="801" fill="#6284B4"/>
<ellipse cx="764.5" cy="401" rx="360.5" ry="208" fill="url(#paint0_linear_24_3046)"/>
<path d="M657.11 555.942C581.795 554.389 625.729 484.768 657.11 450.151C638.67 488.003 624.111 522.943 692.05 522.943C748.858 522.943 851.222 478.621 895.867 450.151C936.307 422.005 1015.44 353.872 1008.45 306.509C1001.46 259.146 921.425 272.539 882.28 285.157C902.338 273.833 958.759 250.216 1023.98 246.334C1105.51 241.481 1096.77 290.829 1087.07 306.509C1074.45 326.893 1012.48 421.671 915.427 481.845C868.727 510.799 751.254 557.883 657.11 555.942Z" fill="#07E1F2"/>
<path d="M525.487 394.895C496.758 363.837 476.635 391.659 470.165 409.453C463.371 402.659 474.047 382.277 481.812 373.542C492.209 361.845 538.104 342.485 569.162 349.278C594.008 354.714 624.807 351.543 637.101 349.278C667.511 340.543 738.621 324.044 779.773 327.926C820.924 331.808 844.8 359.955 851.594 373.542C854.505 382.277 854.95 385.633 842.859 373.542C807.919 338.602 746.698 342.77 772.008 349.278C805.978 358.013 819.889 389.395 818.595 403.63C813.742 397.159 799.184 380.53 779.773 365.778C760.361 351.025 732.862 354.455 721.539 358.013C703.746 362.219 662.917 371.213 641.953 373.542C620.989 375.872 559.456 365.778 525.487 365.778C532.281 378.395 529.975 399.747 525.487 394.895Z" fill="url(#paint1_linear_24_3046)"/>
<path d="M646.583 338.02C648.136 324.821 665.994 309.874 674.729 304.051C694.916 300.945 776.314 318.286 814.489 327.344H832.93C820.506 327.344 766.608 303.404 740.727 290.463L771.784 290.463C790.872 298.551 832.347 316.474 845.547 323.462C858.746 330.45 885.987 328.962 897.957 327.344L880.487 314.727C901.839 318.933 940.661 327.344 925.132 327.344C909.604 327.344 874.016 341.579 858.164 348.696L823.224 338.02L863.017 361.314C912.709 333.362 987.895 341.255 1019.28 348.696C1002.19 330.062 962.337 326.697 944.544 327.344C847.488 288.522 835.841 295.316 797.989 287.551C767.708 281.34 716.139 287.228 694.14 290.463C660.17 294.345 612.29 316.345 594.172 332.197C587.379 315.697 573.791 322.249 566.997 327.344C563.115 330.256 566.997 338.02 573.791 344.814C571.85 342.55 570.103 336.856 578.644 332.197C587.184 327.538 592.555 336.726 594.172 341.903C636.877 304.051 655.318 307.933 655.318 307.933C646.583 314.727 644.642 354.52 646.583 338.02Z" fill="url(#paint2_linear_24_3046)"/>
<path d="M943.573 374.902L928.044 352.579C950.561 344.815 982.072 349.344 995.012 352.579C967.837 347.92 949.396 365.52 943.573 374.902Z" fill="url(#paint3_linear_24_3046)"/>
<path d="M886.31 391.401C921.574 394.312 999.477 397.224 1028.98 385.577C1008.28 395.606 950.755 410.812 886.31 391.401Z" fill="url(#paint4_linear_24_3046)"/>
<path d="M902.257 359.375C888.936 349.687 877.993 357.11 873.14 363.257C866.346 369.08 870.617 386.744 879.934 379.756C895.463 368.11 904.198 371.021 925.55 379.756C922.639 377.168 912.933 367.139 902.257 359.375Z" fill="#92CF79"/>
<path d="M1014.84 361.316C1023.9 360.022 1037.47 365.641 1023.58 374.904C1020.66 376.845 1018.72 371.021 1014.84 367.139C1012.37 367.139 1006.39 374.006 1004.65 377.976C1004.25 379.97 1004.17 380.933 1004.17 379.756C1004.17 379.29 1004.34 378.678 1004.65 377.976C1005.56 373.389 1008.08 363.345 1014.84 361.316Z" fill="#92CF79"/>
<path d="M537.675 418.052C523.699 390.877 496.912 393.788 485.265 398.641C479.054 403.3 482.677 407.053 485.265 408.347L510.5 415.14L514.382 434.552L497.883 449.11C493.677 448.139 483.324 445.228 475.56 441.346C467.795 437.463 469.736 446.845 471.678 452.022C496.524 479.197 523.441 463.345 533.793 452.022H834.666C827.678 437.269 831.754 423.228 834.666 418.052H537.675Z" fill="url(#paint5_linear_24_3046)"/>
<path d="M517.294 458.816C531.27 449.498 528.294 420.64 525.058 407.376C528.164 407.376 534.764 415.141 537.676 419.023H554.175C540.199 432.999 548.352 446.846 554.175 452.022H533.793L517.294 458.816Z" fill="#96D57B"/>
<path d="M823.99 418.052H836.607V451.051H823.99C829.425 443.287 826.254 425.817 823.99 418.052Z" fill="#7AC55B"/>
<path d="M891.929 434.551C891.929 451.704 878.024 465.609 860.871 465.609C843.718 465.609 829.813 451.704 829.813 434.551C829.813 417.399 843.718 403.494 860.871 403.494C878.024 403.494 891.929 417.399 891.929 434.551ZM839.961 434.551C839.961 446.1 849.323 455.461 860.871 455.461C872.419 455.461 881.781 446.1 881.781 434.551C881.781 423.003 872.419 413.641 860.871 413.641C849.323 413.641 839.961 423.003 839.961 434.551Z" fill="#7DC45F"/>
<rect x="563.38" y="426.287" width="222.287" height="18.47" rx="9.23501" stroke="url(#paint6_linear_24_3046)"/>
<defs>
<linearGradient id="paint0_linear_24_3046" x1="404" y1="401" x2="1125" y2="401" gradientUnits="userSpaceOnUse">
<stop stop-color="#6284B4"/>
<stop offset="1" stop-color="#171428"/>
</linearGradient>
<linearGradient id="paint1_linear_24_3046" x1="468" y1="368.399" x2="853.313" y2="368.399" gradientUnits="userSpaceOnUse">
<stop stop-color="#E9FFE9"/>
<stop offset="1" stop-color="#85C869"/>
</linearGradient>
<linearGradient id="paint2_linear_24_3046" x1="565.455" y1="323.068" x2="1019.28" y2="323.068" gradientUnits="userSpaceOnUse">
<stop stop-color="#E9FFE9"/>
<stop offset="1" stop-color="#85C869"/>
</linearGradient>
<linearGradient id="paint3_linear_24_3046" x1="928.044" y1="361.597" x2="995.012" y2="361.597" gradientUnits="userSpaceOnUse">
<stop stop-color="#E9FFE9"/>
<stop offset="1" stop-color="#85C869"/>
</linearGradient>
<linearGradient id="paint4_linear_24_3046" x1="886.31" y1="393.172" x2="1028.98" y2="393.172" gradientUnits="userSpaceOnUse">
<stop stop-color="#E9FFE9"/>
<stop offset="1" stop-color="#85C869"/>
</linearGradient>
<linearGradient id="paint5_linear_24_3046" x1="469.941" y1="431.246" x2="834.666" y2="431.246" gradientUnits="userSpaceOnUse">
<stop stop-color="#E9FFE9"/>
<stop offset="1" stop-color="#8FCD76"/>
</linearGradient>
<linearGradient id="paint6_linear_24_3046" x1="563.88" y1="435.522" x2="785.167" y2="435.522" gradientUnits="userSpaceOnUse">
<stop stop-color="#88BF73"/>
<stop offset="1" stop-color="#BFE8B2"/>
</linearGradient>
</defs>
</svg>
