<svg width="81" height="40" viewBox="0 0 81 40" fill="none" xmlns="http://www.w3.org/2000/svg">
<path d="M24.4015 39.9925C14.6834 39.7921 20.3523 30.8087 24.4015 26.3421C22.0221 31.2262 20.1436 35.7346 28.9099 35.7346C36.24 35.7346 49.4481 30.0156 55.2089 26.3421C60.4269 22.7103 70.6376 13.919 69.7359 7.80758C68.8342 1.6962 58.5067 3.42442 53.4556 5.05245C56.0437 3.5914 63.324 0.544057 71.7396 0.0431245C82.2592 -0.583041 81.1321 5.78437 79.8798 7.80758C78.2518 10.4378 70.256 22.6672 57.7327 30.4317C51.7069 34.1676 36.5491 40.243 24.4015 39.9925Z" fill="#07E1F2"/>
<path d="M7.41763 19.2122C3.71073 15.2048 1.11422 18.7948 0.279336 21.0907C-0.597296 20.2141 0.780277 17.5842 1.78213 16.4571C3.12369 14.9478 9.04566 12.4497 13.0531 13.3263C16.2591 14.0276 20.2332 13.6185 21.8194 13.3263C25.7434 12.1992 34.9188 10.0702 40.2287 10.5712C45.5386 11.0721 48.6193 14.7038 49.496 16.4571C49.8717 17.5842 49.929 18.0173 48.3689 16.4571C43.8605 11.9487 35.9611 12.4865 39.2268 13.3263C43.61 14.4534 45.405 18.5026 45.238 20.3393C44.6119 19.5044 42.7334 17.3588 40.2287 15.4552C37.7241 13.5517 34.1758 13.9942 32.7147 14.4534C30.4188 14.9961 25.1506 16.1565 22.4456 16.4571C19.7406 16.7577 11.8008 15.4552 7.41763 15.4552C8.29427 17.0833 7.99684 19.8384 7.41763 19.2122Z" fill="url(#paint0_linear_24_3025)"/>
<path d="M23.0428 11.8736C23.2432 10.1704 25.5475 8.24184 26.6746 7.49044C29.2795 7.0897 39.7823 9.3272 44.7082 10.496H47.0876C45.4846 10.496 38.53 7.40695 35.1904 5.73718L39.1979 5.73718C41.6608 6.78079 47.0125 9.09343 48.7156 9.99511C50.4188 10.8968 53.9337 10.7048 55.4782 10.496L53.224 8.86801C55.9792 9.41068 60.9885 10.496 58.9847 10.496C56.981 10.496 52.3891 12.3328 50.3437 13.2512L45.8353 11.8736L50.9698 14.8792C57.3818 11.2725 67.0832 12.291 71.1324 13.2512C68.9283 10.8467 63.7854 10.4125 61.4894 10.496C48.9661 5.48671 47.4633 6.36334 42.5792 5.36148C38.6719 4.55999 32.0179 5.31973 29.1793 5.73718C24.7961 6.23811 18.6179 9.07673 16.2802 11.1222C15.4036 8.99324 13.6503 9.83859 12.7737 10.496C12.2728 10.8717 12.7737 11.8736 13.6503 12.7502C13.3999 12.458 13.1745 11.7233 14.2765 11.1222C15.3786 10.5211 16.0715 11.7066 16.2802 12.3745C21.7905 7.49044 24.1699 7.99137 24.1699 7.99137C23.0428 8.86801 22.7924 14.0026 23.0428 11.8736Z" fill="url(#paint1_linear_24_3025)"/>
<path d="M61.3641 16.6325L59.3604 13.7522C62.2658 12.7503 66.3317 13.3347 68.0014 13.7522C64.4949 13.151 62.1155 15.4219 61.3641 16.6325Z" fill="url(#paint2_linear_24_3025)"/>
<path d="M53.9756 18.7614C58.5257 19.1371 68.5778 19.5128 72.3849 18.01C69.7132 19.3041 62.2911 21.2661 53.9756 18.7614Z" fill="url(#paint3_linear_24_3025)"/>
<path d="M56.0333 14.629C54.3145 13.379 52.9024 14.3368 52.2763 15.1299C51.3996 15.8813 51.9507 18.1606 53.1529 17.2589C55.1566 15.7561 56.2837 16.1318 59.0389 17.2589C58.6632 16.9249 57.4108 15.6309 56.0333 14.629Z" fill="#92CF79"/>
<path d="M70.5603 14.8795C71.7291 14.7125 73.4801 15.4376 71.6874 16.6327C71.3117 16.8832 71.0612 16.1318 70.5603 15.6309C70.2411 15.6309 69.4698 16.5169 69.2451 17.0291C69.1942 17.2865 69.1827 17.4107 69.1827 17.2589C69.1827 17.1987 69.2054 17.1197 69.2451 17.0291C69.3622 16.4373 69.6875 15.1413 70.5603 14.8795Z" fill="#92CF79"/>
<path d="M8.99037 22.2003C7.18701 18.6938 3.73057 19.0695 2.22778 19.6956C1.42629 20.2967 1.89382 20.781 2.22778 20.948L5.48383 21.8246L5.98477 24.3292L3.8558 26.2077C3.31313 26.0825 1.97731 25.7068 0.975445 25.2059C-0.0264205 24.7049 0.224046 25.9155 0.474512 26.5834C3.68048 30.09 7.15361 28.0445 8.48944 26.5834H47.3117C46.41 24.6799 46.936 22.8682 47.3117 22.2003H8.99037Z" fill="url(#paint4_linear_24_3025)"/>
<path d="M6.36035 27.4601C8.16371 26.2579 7.77966 22.5343 7.36222 20.8228C7.76296 20.8228 8.61455 21.8246 8.99025 22.3256H11.1192C9.31585 24.1289 10.3678 25.9156 11.1192 26.5835H8.48932L6.36035 27.4601Z" fill="#96D57B"/>
<path d="M45.9341 22.2002H47.5621V26.4581H45.9341C46.6354 25.4563 46.2263 23.2021 45.9341 22.2002Z" fill="#7AC55B"/>
<path d="M54.7005 24.3292C54.7005 26.5425 52.9063 28.3367 50.693 28.3367C48.4797 28.3367 46.6855 26.5425 46.6855 24.3292C46.6855 22.116 48.4797 20.3218 50.693 20.3218C52.9063 20.3218 54.7005 22.116 54.7005 24.3292ZM47.9949 24.3292C47.9949 25.8193 49.2029 27.0273 50.693 27.0273C52.1831 27.0273 53.3911 25.8193 53.3911 24.3292C53.3911 22.8391 52.1831 21.6312 50.693 21.6312C49.2029 21.6312 47.9949 22.8391 47.9949 24.3292Z" fill="#7DC45F"/>
<rect x="11.8716" y="22.8274" width="29.5532" height="3.2542" rx="1.6271" stroke="url(#paint5_linear_24_3025)"/>
<defs>
<linearGradient id="paint0_linear_24_3025" x1="0" y1="15.7934" x2="49.7178" y2="15.7934" gradientUnits="userSpaceOnUse">
<stop stop-color="#E9FFE9"/>
<stop offset="1" stop-color="#85C869"/>
</linearGradient>
<linearGradient id="paint1_linear_24_3025" x1="12.5747" y1="9.94424" x2="71.1324" y2="9.94424" gradientUnits="userSpaceOnUse">
<stop stop-color="#E9FFE9"/>
<stop offset="1" stop-color="#85C869"/>
</linearGradient>
<linearGradient id="paint2_linear_24_3025" x1="59.3604" y1="14.9157" x2="68.0014" y2="14.9157" gradientUnits="userSpaceOnUse">
<stop stop-color="#E9FFE9"/>
<stop offset="1" stop-color="#85C869"/>
</linearGradient>
<linearGradient id="paint3_linear_24_3025" x1="53.9756" y1="18.99" x2="72.3849" y2="18.99" gradientUnits="userSpaceOnUse">
<stop stop-color="#E9FFE9"/>
<stop offset="1" stop-color="#85C869"/>
</linearGradient>
<linearGradient id="paint4_linear_24_3025" x1="0.250488" y1="23.9027" x2="47.3117" y2="23.9027" gradientUnits="userSpaceOnUse">
<stop stop-color="#E9FFE9"/>
<stop offset="1" stop-color="#8FCD76"/>
</linearGradient>
<linearGradient id="paint5_linear_24_3025" x1="12.3716" y1="24.4545" x2="40.9247" y2="24.4545" gradientUnits="userSpaceOnUse">
<stop stop-color="#88BF73"/>
<stop offset="1" stop-color="#BFE8B2"/>
</linearGradient>
</defs>
</svg>
