<svg width="14" height="15" viewBox="0 0 14 15" fill="none" xmlns="http://www.w3.org/2000/svg">
<path d="M13.5475 5.09655L9.35058 4.45782L7.47444 0.474866C7.4232 0.365816 7.3389 0.277536 7.23476 0.223876C6.97359 0.088861 6.65621 0.201374 6.52563 0.474866L4.64949 4.45782L0.452561 5.09655C0.336853 5.11386 0.231061 5.17098 0.150065 5.25753C0.0521452 5.36292 -0.00181317 5.50471 4.65248e-05 5.65174C0.00190622 5.79877 0.0594318 5.93901 0.159983 6.04165L3.19652 9.14181L2.47912 13.5194C2.4623 13.6213 2.47306 13.726 2.51018 13.8217C2.54731 13.9175 2.60931 14.0004 2.68916 14.0612C2.76901 14.1219 2.86352 14.158 2.96196 14.1653C3.0604 14.1727 3.15883 14.151 3.24611 14.1028L7.00003 12.036L10.754 14.1028C10.8564 14.1599 10.9755 14.1789 11.0895 14.1582C11.3771 14.1062 11.5705 13.8206 11.5209 13.5194L10.8036 9.14181L13.8401 6.04165C13.9227 5.95684 13.9773 5.84605 13.9938 5.72489C14.0384 5.42197 13.8368 5.14155 13.5475 5.09655Z" fill="#F5B90C"/>
</svg>
