<svg width="20" height="21" viewBox="0 0 20 21" fill="none" xmlns="http://www.w3.org/2000/svg">
<path d="M19.3536 7.20932L13.358 6.29685L10.6778 0.606917C10.6046 0.45113 10.4841 0.325017 10.3354 0.24836C9.96227 0.0554808 9.50887 0.216213 9.32232 0.606917L6.64213 6.29685L0.646516 7.20932C0.481218 7.23405 0.330088 7.31565 0.214379 7.43929C0.0744931 7.58985 -0.00259025 7.79241 6.6464e-05 8.00245C0.00272317 8.21249 0.0849026 8.41284 0.228547 8.55947L4.56645 12.9883L3.5416 19.242C3.51757 19.3875 3.53294 19.5371 3.58598 19.6739C3.63901 19.8107 3.72759 19.9292 3.84166 20.0159C3.95573 20.1027 4.09074 20.1542 4.23137 20.1647C4.37199 20.1752 4.51262 20.1443 4.63729 20.0753L10 17.1228L15.3628 20.0753C15.5092 20.1569 15.6792 20.1841 15.8422 20.1545C16.2531 20.0803 16.5293 19.6723 16.4585 19.242L15.4336 12.9883L19.7715 8.55947C19.8896 8.4383 19.9675 8.28004 19.9912 8.10695C20.0549 7.67421 19.7668 7.27361 19.3536 7.20932Z" fill="#F5B90C"/>
</svg>
