<svg width="14" height="15" viewBox="0 0 14 15" fill="none" xmlns="http://www.w3.org/2000/svg">
<path d="M5.76971 0.367442C5.60567 0.195204 5.35962 0.12959 5.12997 0.189736C4.90032 0.249883 4.72262 0.433056 4.66247 0.662707L4.23051 2.37141L2.53547 1.89298C2.30582 1.82736 2.05977 1.89298 1.893 2.05974C1.72623 2.22651 1.66061 2.47257 1.72623 2.70222L2.20466 4.39726L0.495958 4.83195C0.266308 4.88936 0.0858688 5.0698 0.0229884 5.29945C-0.039892 5.5291 0.0284563 5.77242 0.200694 5.93646L1.46377 7.16673L0.200694 8.397C0.0284563 8.56103 -0.037158 8.80709 0.0229884 9.03674C0.0831349 9.26639 0.266308 9.44409 0.495958 9.50424L2.20466 9.9362L1.72623 11.6312C1.66061 11.8609 1.72623 12.1069 1.893 12.2737C2.05977 12.4405 2.30582 12.5061 2.53547 12.4405L4.23051 11.962L4.66247 13.6707C4.71988 13.9004 4.90032 14.0808 5.12997 14.1437C5.35962 14.2066 5.60294 14.1383 5.76971 13.9687L6.99998 12.7057L8.23025 13.9687C8.39702 14.1383 8.64034 14.2066 8.86999 14.1437C9.09964 14.0808 9.27734 13.9004 9.33749 13.6707L9.76945 11.962L11.4645 12.4405C11.6941 12.5061 11.9402 12.4405 12.107 12.2737C12.2737 12.1069 12.3393 11.8609 12.2737 11.6312L11.7953 9.9362L13.504 9.50424C13.7337 9.44683 13.9141 9.26639 13.977 9.03674C14.0399 8.80709 13.9715 8.56103 13.802 8.397L12.5389 7.16673L13.802 5.93646C13.9715 5.76969 14.0399 5.52637 13.977 5.29672C13.9141 5.06707 13.7337 4.88936 13.504 4.82922L11.7953 4.39726L12.2737 2.70222C12.3393 2.47257 12.2737 2.22651 12.107 2.05974C11.9402 1.89298 11.6941 1.82736 11.4645 1.89298L9.76945 2.37141L9.33476 0.662707C9.27734 0.433056 9.0969 0.252617 8.86725 0.189736C8.6376 0.126856 8.39428 0.195204 8.23025 0.367442L6.99998 1.63052L5.76971 0.367442Z" fill="#4286CE"/>
<path d="M9.94106 5.16675H9.42711C9.35505 5.16675 9.28667 5.20169 9.24256 5.26149L6.21106 9.31756L4.75744 7.37223C4.73545 7.34274 4.70742 7.3189 4.67546 7.30249C4.6435 7.28608 4.60843 7.27753 4.57289 7.27749H4.05894C4.00968 7.27749 3.98247 7.33728 4.01262 7.37767L6.02651 10.0724C6.12062 10.1982 6.3015 10.1982 6.39635 10.0724L9.98738 5.26615C10.0175 5.22654 9.99032 5.16675 9.94106 5.16675Z" fill="white"/>
</svg>
