<svg width="72" height="70" viewBox="0 0 72 70" fill="none" xmlns="http://www.w3.org/2000/svg">
<path fill-rule="evenodd" clip-rule="evenodd" d="M3.1466 26.2483C2.81928 26.2484 2.49616 26.322 2.20105 26.4636C1.90595 26.6052 1.64639 26.8113 1.4415 27.0665C1.23662 27.3218 1.09163 27.6198 1.01722 27.9386C0.94282 28.2573 0.940899 28.5887 1.0116 28.9083L8.2391 61.432C8.77859 63.8613 10.1303 66.0339 12.0711 67.5913C14.0119 69.1487 16.4257 69.9978 18.9141 69.9983H44.2541C46.7425 69.9978 49.1563 69.1487 51.0971 67.5913C53.0379 66.0339 54.3896 63.8613 54.9291 61.432L55.5022 58.8508C58.8488 59.4767 62.3076 58.7778 65.1485 56.9015C67.9894 55.0252 69.99 52.1185 70.7281 48.7949C71.4662 45.4713 70.8839 41.9909 69.1042 39.0885C67.3245 36.1862 64.4866 34.0889 61.1897 33.2395L62.1566 28.9083C62.2273 28.5887 62.2254 28.2573 62.151 27.9386C62.0766 27.6198 61.9316 27.3218 61.7267 27.0665C61.5218 26.8113 61.2623 26.6052 60.9672 26.4636C60.672 26.322 60.3489 26.2484 60.0216 26.2483H3.1466ZM57.8341 54.6858C57.3711 54.686 56.9088 54.6494 56.4516 54.5764L60.2447 37.5227C62.2682 38.1087 64.0124 39.4047 65.1575 41.1729C66.3025 42.9412 66.7716 45.063 66.4786 47.1491C66.1856 49.2352 65.1501 51.1457 63.5623 52.5301C61.9745 53.9144 59.9407 54.6798 57.8341 54.6858Z" fill="#07E1F2"/>
<path d="M20.209 3.49826L20.1959 3.51576L20.1346 3.59889C19.8163 4.03692 19.5185 4.48949 19.2421 4.95514C19.0073 5.32841 18.8011 5.7189 18.6252 6.12326C18.5115 6.38576 18.4765 6.52576 18.4634 6.57389V6.59139C18.5138 6.97814 18.6498 7.34879 18.8615 7.67639C19.1896 8.25826 19.6402 8.86639 20.209 9.62326L20.2527 9.67576C20.769 10.367 21.3902 11.1939 21.8715 12.0514C22.3615 12.9264 22.834 14.042 22.834 15.3108C22.834 16.1333 22.5496 16.9208 22.3134 17.472C22.0605 18.0586 21.7651 18.6259 21.4296 19.1695C21.0864 19.7432 20.717 20.3009 20.3227 20.8408L20.244 20.9501L20.2221 20.9851L20.2134 20.9939C19.8658 21.4586 19.348 21.7662 18.7736 21.8491C18.1993 21.932 17.6156 21.7833 17.1509 21.4358C16.6862 21.0882 16.3785 20.5704 16.2957 19.996C16.2128 19.4217 16.3615 18.838 16.709 18.3733L16.7221 18.3558L16.7834 18.2726C17.1017 17.8346 17.3995 17.382 17.6759 16.9164C17.9106 16.5431 18.1168 16.1526 18.2927 15.7483C18.4065 15.4858 18.4415 15.3458 18.4546 15.2976C18.408 14.9052 18.2734 14.5283 18.0609 14.1951C17.6547 13.5164 17.2031 12.8659 16.709 12.2483L16.6652 12.1958C16.0741 11.4402 15.5334 10.6466 15.0465 9.82014C14.4506 8.83457 14.1191 7.71193 14.084 6.56076C14.084 5.73826 14.3684 4.95076 14.6046 4.39951C14.8627 3.79576 15.1909 3.20076 15.4884 2.70201C15.8359 2.13104 16.2051 1.57355 16.5952 1.03076L16.7046 0.877636C17.0521 0.412927 17.57 0.105302 18.1443 0.0224341C18.7187 -0.0604335 19.3024 0.0882447 19.7671 0.435761C20.2318 0.783278 20.5394 1.30117 20.6223 1.8755C20.7052 2.44983 20.5565 3.03355 20.209 3.49826ZM33.334 3.49826L33.3209 3.51576L33.2596 3.59889C32.9413 4.03692 32.6435 4.48949 32.3671 4.95514C32.1323 5.32841 31.9261 5.7189 31.7502 6.12326C31.6365 6.38576 31.6015 6.52576 31.5884 6.57389V6.59139C31.6388 6.97814 31.7748 7.34879 31.9865 7.67639C32.3146 8.25826 32.7652 8.86639 33.334 9.62326L33.3777 9.67576C33.894 10.367 34.5152 11.1939 34.9965 12.0514C35.4865 12.9264 35.959 14.042 35.959 15.3108C35.959 16.1333 35.6746 16.9208 35.4384 17.472C35.1855 18.0586 34.8901 18.6259 34.5546 19.1695C34.2114 19.7432 33.842 20.3009 33.4477 20.8408L33.369 20.9501L33.3471 20.9851L33.3384 20.9939C32.9908 21.4586 32.473 21.7662 31.8986 21.8491C31.3243 21.932 30.7406 21.7833 30.2759 21.4358C29.8112 21.0882 29.5035 20.5704 29.4207 19.996C29.3378 19.4217 29.4865 18.838 29.834 18.3733L29.8471 18.3558L29.9084 18.2726C30.2267 17.8346 30.5245 17.382 30.8009 16.9164C31.0356 16.5431 31.2418 16.1526 31.4177 15.7483C31.5315 15.4858 31.5665 15.3458 31.5796 15.2976C31.533 14.9052 31.3984 14.5283 31.1859 14.1951C30.7798 13.5164 30.3281 12.8659 29.834 12.2483L29.7902 12.1958C29.1991 11.4402 28.6584 10.6466 28.1715 9.82014C27.5756 8.83457 27.2441 7.71193 27.209 6.56076C27.209 5.73826 27.4934 4.95076 27.7296 4.39951C27.9877 3.79576 28.3159 3.20076 28.6134 2.70201C28.9609 2.13104 29.3301 1.57355 29.7202 1.03076L29.8296 0.877636C30.1771 0.412927 30.695 0.105302 31.2693 0.0224341C31.8437 -0.0604335 32.4274 0.0882446 32.8921 0.435761C33.3568 0.783278 33.6644 1.30117 33.7473 1.8755C33.8302 2.44983 33.6815 3.03355 33.334 3.49826ZM46.459 3.49826L46.4459 3.51576L46.3846 3.59889C46.0663 4.03692 45.7685 4.48949 45.4921 4.95514C45.2573 5.32841 45.0511 5.7189 44.8752 6.12326C44.7615 6.38576 44.7265 6.52576 44.7134 6.57389V6.59139C44.7638 6.97814 44.8998 7.34879 45.1115 7.67639C45.4396 8.25826 45.8902 8.86639 46.459 9.62326L46.5027 9.67576C47.019 10.367 47.6402 11.1939 48.1215 12.0514C48.6115 12.9264 49.084 14.042 49.084 15.3108C49.084 16.1333 48.7996 16.9208 48.5634 17.472C48.3105 18.0586 48.0151 18.6259 47.6796 19.1695C47.3378 19.7431 46.9699 20.3008 46.5771 20.8408L46.494 20.9501L46.4721 20.9851L46.4634 20.9939C46.1158 21.4586 45.598 21.7662 45.0236 21.8491C44.4493 21.932 43.8656 21.7833 43.4009 21.4358C42.9362 21.0882 42.6285 20.5704 42.5457 19.996C42.4628 19.4217 42.6115 18.838 42.959 18.3733L42.9721 18.3558L43.0334 18.2726C43.3517 17.8346 43.6495 17.382 43.9259 16.9164C44.1606 16.5431 44.3668 16.1526 44.5427 15.7483C44.6565 15.4858 44.6915 15.3458 44.7046 15.2976C44.658 14.9052 44.5234 14.5283 44.3109 14.1951C43.9048 13.5164 43.4531 12.8659 42.959 12.2483L42.9152 12.1958C42.3241 11.4402 41.7834 10.6466 41.2965 9.82014C40.7006 8.83457 40.3691 7.71193 40.334 6.56076C40.334 5.73826 40.6184 4.95076 40.8546 4.39951C41.1127 3.79576 41.4409 3.20076 41.7384 2.70201C42.0859 2.13104 42.4551 1.57355 42.8452 1.03076L42.9546 0.877636C43.3021 0.412927 43.82 0.105302 44.3943 0.0224341C44.9687 -0.0604335 45.5524 0.0882446 46.0171 0.435761C46.4818 0.783278 46.7894 1.30117 46.8723 1.8755C46.9552 2.44983 46.8065 3.03355 46.459 3.49826Z" fill="#07E1F2"/>
</svg>
