<svg width="78" height="71" viewBox="0 0 78 71" fill="none" xmlns="http://www.w3.org/2000/svg">
<path d="M74.8068 23.1412C74.8068 22.3284 75.4657 21.6695 76.2785 21.6695C77.0913 21.6695 77.7502 22.3284 77.7502 23.1412V26.859C77.7502 27.6718 77.0913 28.3307 76.2785 28.3307C75.4657 28.3307 74.8068 27.6718 74.8068 26.859V23.1412ZM69.0068 28.8093C69.0068 29.6221 69.6657 30.281 70.4785 30.281C71.2912 30.281 71.9501 29.6221 71.9501 28.8093V21.1909C71.9501 20.3781 71.2912 19.7192 70.4785 19.7192C69.6657 19.7192 69.0068 20.3781 69.0068 21.1909V28.8093ZM63.3041 34.2723C63.3041 35.0851 63.963 35.744 64.7758 35.744C65.5886 35.744 66.2475 35.0851 66.2475 34.2723V15.7279C66.2475 14.9151 65.5886 14.2562 64.7758 14.2562C63.963 14.2562 63.3041 14.9151 63.3041 15.7279V34.2723ZM57.883 39.9523C57.883 39.9563 57.8862 39.9595 57.8902 39.9595H59.3547C60.1674 39.9595 60.8263 39.3006 60.8263 38.4878V11.709C60.8263 10.8962 60.1674 10.2374 59.3547 10.2374C58.5419 10.2374 57.883 10.8963 57.883 11.709V39.9523ZM52.0793 31.2294C52.0793 32.0422 52.7381 32.7011 53.5509 32.7011C54.3637 32.7011 55.0226 32.0422 55.0226 31.2294V18.7708C55.0226 17.958 54.3637 17.2991 53.5509 17.2991C52.7381 17.2991 52.0793 17.958 52.0793 18.7708V31.2294ZM46.1835 44.3554C47.8091 44.3554 49.1268 43.0376 49.1268 41.4121V6.46197C49.1268 5.64663 48.4659 4.98568 47.6505 4.98568C46.8352 4.98568 46.1742 5.64664 46.1742 6.46197V44.3461C46.1742 44.3513 46.1784 44.3554 46.1835 44.3554ZM40.3816 48.5285C40.3816 49.3413 41.0405 50.0002 41.8533 50.0002C42.666 50.0002 43.3249 49.3413 43.3249 48.5285V1.47166C43.3249 0.658884 42.666 0 41.8533 0C41.0405 0 40.3816 0.658885 40.3816 1.47166V48.5285ZM34.6789 42.2812C34.6789 42.2811 34.679 42.281 34.6791 42.281H36.1506C36.9634 42.281 37.6223 41.6221 37.6223 40.8094V9.19067C37.6223 8.37789 36.9634 7.71901 36.1506 7.71901C35.3378 7.71901 34.6789 8.37789 34.6789 9.19067V42.2812ZM28.7795 30.9944C28.7795 31.8072 29.4384 32.4661 30.2512 32.4661C31.0639 32.4661 31.7228 31.8072 31.7228 30.9944V19.3697C31.7228 18.5569 31.0639 17.898 30.2512 17.898C29.4384 17.898 28.7795 18.5569 28.7795 19.3697V30.9944ZM23.077 29.0065C23.077 28.9992 23.0829 28.9933 23.0902 28.9933H24.5487C25.3614 28.9933 26.0203 28.3344 26.0203 27.5216V22.4657C26.0203 21.653 25.3614 20.9941 24.5487 20.9941C23.7359 20.9941 23.077 21.653 23.077 22.4657V29.0065ZM17.3743 33.2781C17.3743 33.2752 17.3767 33.2728 17.3797 33.2728H18.846C19.6588 33.2728 20.3177 32.6139 20.3177 31.8011V18.1934C20.3177 17.3806 19.6588 16.7217 18.846 16.7217C18.0332 16.7217 17.3743 17.3806 17.3743 18.1934V33.2781ZM11.7638 41.2907C11.7637 41.2875 11.7663 41.2849 11.7695 41.2849H13.2565C14.0576 41.2849 14.707 40.6355 14.707 39.8344V9.23979C14.707 8.42706 14.0481 7.76821 13.2354 7.76821C12.4227 7.76821 11.7638 8.42706 11.7638 9.23979V41.2907ZM6.06116 36.1701C6.06116 36.167 6.0637 36.1644 6.06683 36.1644H7.53283C8.3456 36.1644 9.00449 35.5055 9.00449 34.6928V15.0196C9.00449 14.2068 8.3456 13.5479 7.53283 13.5479C6.72005 13.5479 6.06116 14.2068 6.06116 15.0196V36.1701ZM0.25 28.8093C0.25 29.6221 0.908885 30.281 1.72166 30.281C2.53444 30.281 3.19332 29.6221 3.19332 28.8093V21.1909C3.19332 20.3781 2.53444 19.7192 1.72166 19.7192C0.908885 19.7192 0.25 20.3781 0.25 21.1909V28.8093Z" fill="#0C1444"/>
<path d="M40.25 14C46.3251 14 51.25 18.9249 51.25 25C51.25 31.0752 46.3251 36 40.25 36C34.1749 36 29.25 31.0751 29.25 25C29.25 18.9249 34.1749 14 40.25 14Z" fill="white" stroke="#0C1444" stroke-width="2"/>
<rect x="35.25" y="32.5" width="7.50002" height="22.5001" rx="3.75001" fill="white"/>
<rect x="40.25" y="42.5" width="7.50002" height="22.5001" rx="3.75001" fill="white"/>
<path d="M38.9441 32.4998C39.4321 32.4998 39.9002 32.6973 40.2452 33.0489C40.5903 33.4006 40.7842 33.8775 40.7842 34.3748V49.9998C40.7842 50.3314 40.9134 50.6493 41.1435 50.8837C41.3735 51.1181 41.6855 51.2498 42.0109 51.2498C42.3362 51.2498 42.6482 51.1181 42.8783 50.8837C43.1083 50.6493 43.2375 50.3314 43.2375 49.9998V43.6673L43.4485 43.6573C44.2263 43.6273 45.0113 43.6373 45.4505 43.7248C45.7792 43.7923 46.1718 43.9648 46.5496 44.1798C46.7385 44.2848 46.9176 44.5473 46.9176 44.9648V49.9998C46.9176 50.3314 47.0469 50.6493 47.2769 50.8837C47.5069 51.1181 47.819 51.2498 48.1443 51.2498C48.4696 51.2498 48.7817 51.1181 49.0117 50.8837C49.2418 50.6493 49.371 50.3314 49.371 49.9998V46.0873L49.631 46.0623C50.4063 46.0023 51.0638 46.0373 51.368 46.1623C51.6575 46.2773 52.1041 46.6798 52.5604 47.2373C52.7591 47.4773 52.9284 47.7123 53.0511 47.8848V51.2498C53.0511 51.5814 53.1803 51.8993 53.4103 52.1337C53.6404 52.3681 53.9524 52.4998 54.2777 52.4998C54.6031 52.4998 54.9151 52.3681 55.1452 52.1337C55.3752 51.8993 55.5044 51.5814 55.5044 51.2498V48.7498H56.3435C56.6864 48.7498 57.0254 48.8231 57.3388 48.9648C57.6522 49.1065 57.933 49.3137 58.163 49.5728C58.393 49.8319 58.5672 50.1372 58.6742 50.4692C58.7813 50.8011 58.8189 51.1522 58.7846 51.4998L58.1197 58.2874C58.0339 59.1596 57.7689 60.0038 57.342 60.7649L53.9196 66.8699C53.8123 67.0612 53.6573 67.2202 53.4704 67.3309C53.2834 67.4415 53.071 67.4998 52.8548 67.4999H37.19C36.9879 67.4998 36.7891 67.4488 36.611 67.3516C36.433 67.2543 36.2813 67.1138 36.1694 66.9424L32.6537 61.5674C32.3272 61.0689 32.1228 60.4979 32.0575 59.9024L31.2111 52.1398C31.1769 51.8287 31.2585 51.5159 31.4397 51.2631C31.621 51.0104 31.8887 50.8361 32.19 50.7748L34.6507 50.2748V52.4998C34.6507 52.8314 34.78 53.1493 35.01 53.3837C35.2401 53.6182 35.5521 53.7498 35.8774 53.7498C36.2027 53.7498 36.5148 53.6182 36.7448 53.3837C36.9749 53.1493 37.1041 52.8314 37.1041 52.4998V34.3748C37.1041 33.8775 37.298 33.4006 37.643 33.0489C37.9881 32.6973 38.4561 32.4998 38.9441 32.4998ZM43.2375 41.1648V34.3748C43.2375 33.2144 42.7852 32.1016 41.98 31.2812C41.1749 30.4607 40.0828 29.9998 38.9441 29.9998C37.8054 29.9998 36.7134 30.4607 35.9082 31.2812C35.1031 32.1016 34.6507 33.2144 34.6507 34.3748V47.7248L31.7067 48.3248C30.8042 48.5092 30.0024 49.0314 29.4592 49.7885C28.9161 50.5457 28.671 51.4827 28.7724 52.4148L29.6188 60.1799C29.7277 61.1725 30.0684 62.1241 30.6124 62.9549L34.1281 68.3299C34.4642 68.8436 34.9195 69.2648 35.4536 69.5561C35.9877 69.8474 36.5841 69.9999 37.19 69.9999H52.8548C53.5035 69.9997 54.1405 69.8248 54.7015 69.4929C55.2625 69.161 55.7274 68.6839 56.0491 68.1099L59.4716 62.0074C60.0699 60.9406 60.441 59.7575 60.5609 58.5349L61.2257 51.7473C61.2939 51.0523 61.2184 50.3503 61.0041 49.6868C60.7898 49.0232 60.4415 48.4128 59.9815 47.8949C59.5215 47.3769 58.9601 46.9629 58.3335 46.6796C57.7069 46.3962 57.029 46.2498 56.3435 46.2498H54.9181C54.7651 46.0381 54.6055 45.8313 54.4397 45.6298C53.9711 45.0573 53.1884 44.2098 52.2807 43.8398C51.3877 43.4748 50.2051 43.5098 49.4397 43.5698L49.1158 43.5998C48.8546 42.9185 48.3689 42.351 47.7419 41.9948C47.1781 41.662 46.5674 41.4191 45.9314 41.2748C45.1708 41.1198 44.1183 41.1298 43.3553 41.1598L43.2375 41.1648Z" fill="#0C1444" stroke="#0C1444"/>
</svg>
