<svg width="80" height="70" viewBox="0 0 80 70" fill="none" xmlns="http://www.w3.org/2000/svg">
<path d="M28.2184 54.3284H51.788C52.1808 54.3284 52.5022 54.0184 52.5022 53.6395V46.4065C52.5022 46.0276 52.1808 45.7176 51.788 45.7176H48.2168C47.824 45.7176 47.5026 46.0276 47.5026 46.4065V49.5064H32.5038V46.4065C32.5038 46.0276 32.1824 45.7176 31.7895 45.7176H28.2184C27.8255 45.7176 27.5041 46.0276 27.5041 46.4065V53.6395C27.5041 54.0184 27.8255 54.3284 28.2184 54.3284ZM58.5731 43.7372C58.5731 44.6507 58.9494 45.5267 59.6191 46.1727C60.2888 46.8186 61.1972 47.1815 62.1443 47.1815C63.0914 47.1815 63.9998 46.8186 64.6695 46.1727C65.3392 45.5267 65.7154 44.6507 65.7154 43.7372C65.7154 42.8237 65.3392 41.9476 64.6695 41.3017C63.9998 40.6557 63.0914 40.2929 62.1443 40.2929C61.1972 40.2929 60.2888 40.6557 59.6191 41.3017C58.9494 41.9476 58.5731 42.8237 58.5731 43.7372ZM79.9108 29.3055L77.7949 25.7407C77.6997 25.5835 77.544 25.4691 77.3617 25.4223C77.1793 25.3755 76.9852 25.4002 76.8217 25.491L72.2953 28.0398L65.3048 9.42328C64.9357 8.31244 64.2101 7.34347 63.2328 6.65628C62.2556 5.96908 61.0771 5.59922 59.8677 5.6001H21.1832C18.0852 5.6001 15.3355 7.52891 14.3802 10.3791L7.71998 28.0484L3.18462 25.4996C3.0211 25.4088 2.82699 25.3841 2.64466 25.4309C2.46233 25.4777 2.3066 25.5921 2.21148 25.7493L0.0955717 29.3055C-0.100842 29.6327 0.015221 30.0461 0.35448 30.2355L5.74692 33.2665L4.45237 36.7108C4.34524 36.9863 4.29167 37.2791 4.29167 37.5719V67.5545C4.29167 68.9064 5.34516 70 6.6397 70H12.6749C13.7731 70 14.7284 69.1992 14.9605 68.0798L15.6479 64.8335H64.3584L65.0459 68.0798C65.2869 69.1992 66.2333 70 67.3314 70H73.3666C74.6612 70 75.7147 68.9064 75.7147 67.5545V37.5719C75.7147 37.2791 75.6611 36.9863 75.554 36.7108L74.2594 33.2665L79.6429 30.2355C79.805 30.1452 79.9239 29.9972 79.9739 29.8233C80.024 29.6494 80.0013 29.4635 79.9108 29.3055ZM69.2866 38.2263V58.6338H10.7197V38.2263L12.1125 34.5237H67.8938L69.2866 38.2263ZM20.4243 12.4887L20.469 12.3768L20.5047 12.2648C20.6029 11.9807 20.8707 11.7912 21.1832 11.7912H59.3588L66.0904 29.7016H13.9338L20.4243 12.4887ZM14.2909 43.7372C14.2909 44.6507 14.6671 45.5267 15.3369 46.1727C16.0066 46.8186 16.9149 47.1815 17.862 47.1815C18.8092 47.1815 19.7175 46.8186 20.3872 46.1727C21.0569 45.5267 21.4332 44.6507 21.4332 43.7372C21.4332 42.8237 21.0569 41.9476 20.3872 41.3017C19.7175 40.6557 18.8092 40.2929 17.862 40.2929C16.9149 40.2929 16.0066 40.6557 15.3369 41.3017C14.6671 41.9476 14.2909 42.8237 14.2909 43.7372Z" fill="#0C1444"/>
<path d="M50 19.5999V5.5999L61.4286 1.3999L71.4286 5.5999V19.5999L61.4286 27.9999L50 19.5999Z" fill="white"/>
<path d="M72.8425 3.86859L61.4653 0.0689061C61.328 0.0229687 61.1438 0 60.9597 0C60.7755 0 60.5914 0.0229687 60.4541 0.0689061L49.0769 3.86859C48.799 3.96046 48.5713 4.27546 48.5713 4.56421V20.3929C48.5713 20.6817 48.7621 21.0623 48.9932 21.2428L60.5345 30.0562C60.6516 30.1448 60.8023 30.1907 60.9563 30.1907C61.1104 30.1907 61.2644 30.1448 61.3782 30.0562L72.9195 21.2428C73.1505 21.0656 73.3414 20.685 73.3414 20.3929V4.56421C73.3481 4.27546 73.1204 3.96374 72.8425 3.86859ZM70.9374 19.7629L60.9597 27.382L50.982 19.7629V5.73234L60.9597 2.39859L70.9374 5.73234V19.7629ZM57.3503 13.1676C57.2499 13.0331 57.0891 12.9511 56.915 12.9511H55.0668C54.8492 12.9511 54.722 13.1939 54.8492 13.3678L59.0813 19.0772C59.1314 19.1443 59.1969 19.1989 59.2725 19.2365C59.3481 19.2742 59.4318 19.2938 59.5166 19.2938C59.6014 19.2938 59.6851 19.2742 59.7607 19.2365C59.8363 19.1989 59.9018 19.1443 59.9519 19.0772L67.0702 9.47295C67.1974 9.29905 67.0702 9.05624 66.8525 9.05624H65.0043C64.8336 9.05624 64.6695 9.13827 64.5691 9.2728L59.5166 16.0912L57.3503 13.1676Z" fill="#0C1444"/>
</svg>
