<svg width="53" height="70" viewBox="0 0 53 70" fill="none" xmlns="http://www.w3.org/2000/svg">
<path d="M0.255371 35.5395C0.255371 34.2344 0.773819 32.9828 1.69666 32.0599C2.61951 31.1371 3.87115 30.6187 5.17625 30.6187H34.7015C36.0066 30.6187 37.2583 31.1371 38.1811 32.0599C39.104 32.9828 39.6224 34.2344 39.6224 35.5395V40.4604H42.9686C43.7059 40.4611 44.4336 40.6274 45.0979 40.9471C45.7623 41.2668 46.3463 41.7317 46.8069 42.3074L51.6654 48.3765C52.3645 49.2497 52.7452 50.3351 52.7448 51.4537V58.5037C52.7448 59.8088 52.2263 61.0604 51.3035 61.9833C50.3806 62.9061 49.129 63.4245 47.8239 63.4245H46.1836C46.1836 65.1647 45.4923 66.8335 44.2619 68.064C43.0314 69.2945 41.3625 69.9857 39.6224 69.9857C37.8823 69.9857 36.2134 69.2945 34.983 68.064C33.7525 66.8335 33.0612 65.1647 33.0612 63.4245H16.6583C16.6602 64.2991 16.4872 65.1652 16.1496 65.972C15.8119 66.7787 15.3164 67.5098 14.6921 68.1223C14.0678 68.7347 13.3274 69.2162 12.5143 69.5384C11.7013 69.8606 10.832 70.017 9.95768 69.9984C9.08333 69.9798 8.22151 69.7866 7.42289 69.4302C6.62428 69.0737 5.90499 68.5612 5.3073 67.9227C4.70962 67.2843 4.2456 66.5328 3.94253 65.7124C3.63947 64.8921 3.50346 64.0194 3.54252 63.1457C2.58146 62.8074 1.7491 62.1792 1.1603 61.3477C0.571507 60.5163 0.255316 59.5225 0.255371 58.5037L0.255371 35.5395ZM4.50045 59.9996C5.09421 59.0294 5.93002 58.2301 6.92588 57.6804C7.92173 57.1306 9.0434 56.8492 10.1808 56.8637C11.3183 56.8783 12.4324 57.1883 13.4138 57.7634C14.3953 58.3385 15.2104 59.1588 15.7791 60.144H33.9404C34.5163 59.1466 35.3445 58.3184 36.3418 57.7426V35.5395C36.3418 35.1045 36.169 34.6873 35.8614 34.3797C35.5538 34.0721 35.1366 33.8992 34.7015 33.8992H5.17625C4.74122 33.8992 4.324 34.0721 4.01639 34.3797C3.70877 34.6873 3.53596 35.1045 3.53596 35.5395V58.5037C3.5357 58.8194 3.62657 59.1285 3.79765 59.3938C3.96873 59.6592 4.21277 59.8695 4.50045 59.9996ZM39.6224 56.8634C40.7741 56.8634 41.9055 57.1666 42.9029 57.7424C43.9003 58.3183 44.7285 59.1466 45.3044 60.144H47.8239C48.2589 60.144 48.6761 59.9711 48.9837 59.6635C49.2914 59.3559 49.4642 58.9387 49.4642 58.5037V51.4504C49.4635 51.0782 49.3362 50.7172 49.1033 50.4269L44.248 44.3578C44.0946 44.1657 43.9 44.0105 43.6785 43.9037C43.4571 43.797 43.2145 43.7414 42.9686 43.741H39.6224V56.8634ZM10.0971 60.144C9.22706 60.144 8.39263 60.4896 7.7774 61.1048C7.16218 61.7201 6.81654 62.5545 6.81654 63.4245C6.81654 64.2946 7.16218 65.129 7.7774 65.7443C8.39263 66.3595 9.22706 66.7051 10.0971 66.7051C10.9672 66.7051 11.8016 66.3595 12.4169 65.7443C13.0321 65.129 13.3777 64.2946 13.3777 63.4245C13.3777 62.5545 13.0321 61.7201 12.4169 61.1048C11.8016 60.4896 10.9672 60.144 10.0971 60.144ZM39.6224 60.144C38.7523 60.144 37.9179 60.4896 37.3027 61.1048C36.6875 61.7201 36.3418 62.5545 36.3418 63.4245C36.3418 64.2946 36.6875 65.129 37.3027 65.7443C37.9179 66.3595 38.7523 66.7051 39.6224 66.7051C40.4925 66.7051 41.3269 66.3595 41.9421 65.7443C42.5574 65.129 42.903 64.2946 42.903 63.4245C42.903 62.5545 42.5574 61.7201 41.9421 61.1048C41.3269 60.4896 40.4925 60.144 39.6224 60.144Z" fill="#0C1444"/>
<path d="M22.3686 51.1772C27.6278 44.5955 39.6224 28.6436 39.6224 19.6835C39.6224 8.81658 30.8058 0 19.9389 0C9.07195 0 0.255371 8.81658 0.255371 19.6835C0.255371 28.6436 12.25 44.5955 17.5092 51.1772C18.7702 52.7457 21.1076 52.7457 22.3686 51.1772ZM19.9389 13.1224C21.679 13.1224 23.3479 13.8136 24.5783 15.0441C25.8088 16.2745 26.5001 17.9434 26.5001 19.6835C26.5001 21.4237 25.8088 23.0925 24.5783 24.323C23.3479 25.5534 21.679 26.2447 19.9389 26.2447C18.1988 26.2447 16.5299 25.5534 15.2994 24.323C14.069 23.0925 13.3777 21.4237 13.3777 19.6835C13.3777 17.9434 14.069 16.2745 15.2994 15.0441C16.5299 13.8136 18.1988 13.1224 19.9389 13.1224Z" fill="#0C1444"/>
</svg>
