<svg width="70" height="70" viewBox="0 0 70 70" fill="none" xmlns="http://www.w3.org/2000/svg">
<path d="M32.8257 0L30.5641 5.14077C29.3956 5.21148 28.2307 5.35853 27.077 5.58014L23.6174 1.1326L19.8885 2.39478L19.87 8.05333C18.2904 8.86165 16.7766 9.83891 15.3467 10.9795L10.0767 8.61726L7.37868 11.4743L10.0766 16.5688C9.20701 17.8035 8.45318 19.0944 7.81526 20.429L2.02923 20.5861L0.854427 24.326L5.52599 27.7519C5.30235 29.1395 5.19313 30.5416 5.18689 31.945L0 34.5615L0.543267 38.4448L6.23643 39.5543C6.57582 40.7351 6.99531 41.8956 7.49949 43.0308L3.74759 47.6679L5.84175 50.9869L11.6741 49.6279C12.0412 50.0561 12.4226 50.4795 12.821 50.8897C13.6595 51.753 14.5395 52.5475 15.4541 53.2752L14.3211 59.091L17.7296 61.0512L22.1827 57.1909C23.4615 57.7031 24.7735 58.1126 26.1067 58.4206L27.5602 64.1022L31.4839 64.4213L33.8429 59.063C35.473 58.9654 37.0977 58.7228 38.6954 58.3325L42.443 62.6552L46.0974 61.1989L45.9905 59.0076L37.4602 52.5679C34.9768 53.193 32.4017 53.3603 29.8724 53.0762C25.1539 52.5466 20.6193 50.4252 17.0608 46.7615C8.9269 38.3862 9.15946 25.0637 17.5716 16.9663C21.6461 13.0441 26.8871 11.0544 32.134 10.998C37.7198 10.9379 43.3105 13.0685 47.5045 17.3869C54.3303 24.4156 55.2606 34.989 50.4113 42.9938L55.162 46.5813C55.7559 45.6522 56.2904 44.6951 56.7594 43.715L62.5033 43.5578L63.6781 39.8179L59.0394 36.4154C59.2642 35.0164 59.3755 33.5995 59.3782 32.1853L64.5327 29.578L63.9896 25.6947L58.3013 24.5851C57.8264 22.9589 57.1952 21.3658 56.4067 19.8327L59.7962 15.1588L57.5301 11.955L51.9489 13.5684C51.8787 13.4944 51.8107 13.4194 51.7396 13.3465C50.8484 12.4285 49.9074 11.5875 48.9257 10.8221L49.9938 5.32998L46.5848 3.36998L42.3499 7.04085C40.9789 6.49157 39.5708 6.06403 38.1427 5.74642L36.7543 0.318949L32.8257 0ZM24.184 22.7081C22.6469 22.7256 21.1234 23.1014 19.7261 23.7851L26.4456 28.8614C28.4778 30.3964 29.0542 33.3135 27.4947 35.3612C25.9348 37.4101 22.9394 37.7181 20.8777 36.1613L14.163 31.0897C13.4754 34.7575 14.7774 38.6438 17.9661 41.0523C20.8259 43.2117 24.496 43.616 27.6576 42.4855L28.3679 42.2311L28.9667 42.6842L49.0554 57.8571L49.6542 58.3101L49.6031 59.0591C49.3599 62.395 50.731 65.8064 53.592 67.9673C56.7809 70.3757 60.8948 70.5754 64.2583 68.9289L57.5438 63.8576C55.4822 62.3005 54.9758 59.3447 56.5363 57.2976C58.0966 55.2502 61.074 55.0186 63.1068 56.5532L69.8215 61.6249C70.5075 57.9584 69.2108 54.0702 66.023 51.6623C63.1531 49.4938 59.5119 49.0642 56.369 50.178L55.6632 50.4277L55.0643 49.9746L34.9756 34.802L34.3768 34.3489L34.4279 33.6048C34.6582 30.293 33.2614 26.919 30.3925 24.7516C28.5285 23.3438 26.3474 22.6837 24.1841 22.7083L24.184 22.7081ZM30.6573 36.0593L55.0084 54.4543L53.332 56.6594L28.9762 38.2599L30.6573 36.0593Z" fill="#0C1444"/>
</svg>
