<svg width="62" height="70" viewBox="0 0 62 70" fill="none" xmlns="http://www.w3.org/2000/svg">
<path d="M6.682 64.4545H51.2275C54.737 64.4545 57.5911 61.6004 57.5911 58.0908V13.5454C57.5911 10.0358 54.737 7.18175 51.2275 7.18175H44.8638V0.818115H38.5002V7.18175H19.4093V0.818115H13.0456V7.18175H6.682C3.17245 7.18175 0.318359 10.0358 0.318359 13.5454V58.0908C0.318359 61.6004 3.17245 64.4545 6.682 64.4545ZM51.2275 19.909L51.2306 58.0908H6.682V19.909H51.2275Z" fill="#0C1444"/>
<path d="M13.0454 26.2727H19.409V32.6363H13.0454V26.2727ZM13.0454 39H19.409V45.3636H13.0454V39ZM25.7727 26.2727H32.1363V32.6363H25.7727V26.2727ZM25.7727 39H32.1363V45.3636H25.7727V39ZM38.5 26.2727H44.8636V32.6363H38.5V26.2727ZM38.5 39H44.8636V45.3636H38.5V39Z" fill="#0C1444"/>
<circle cx="42.0002" cy="49.4999" r="17.6818" fill="white" stroke="#0C1444" stroke-width="4"/>
<path d="M42 44.2727V52.1136L47.2273 54.7273" stroke="#0C1444" stroke-width="4" stroke-linecap="round"/>
</svg>
